<?xml version="1.0" encoding="UTF-8" standalone="no"?>
<svg
   xmlns:dc="http://purl.org/dc/elements/1.1/"
   xmlns:cc="http://creativecommons.org/ns#"
   xmlns:rdf="http://www.w3.org/1999/02/22-rdf-syntax-ns#"
   xmlns:svg="http://www.w3.org/2000/svg"
   xmlns="http://www.w3.org/2000/svg"
   viewBox="0 0 2592.7625 2500.7251"
   height="2500.7251"
   width="2592.7625"
   xml:space="preserve"
   version="1.1"
   id="svg2"><metadata
     id="metadata8"><rdf:RDF><cc:Work
         rdf:about=""><dc:format>image/svg+xml</dc:format><dc:type
           rdf:resource="http://purl.org/dc/dcmitype/StillImage" /></cc:Work></rdf:RDF></metadata><defs
     id="defs6"><clipPath
       id="clipPath18"
       clipPathUnits="userSpaceOnUse"><path
         id="path20"
         d="m 0,0 14664,0 0,14143.9 -14664,0 L 0,0 Z" /></clipPath></defs><g
     transform="matrix(1.25,0,0,-1.25,0,2500.725)"
     id="g10"><g
       transform="scale(0.141445,0.141445)"
       id="g12"><g
         id="g14"><g
           clip-path="url(#clipPath18)"
           id="g16"><path
             id="path22"
             style="fill:#4f4c4c;fill-opacity:1;fill-rule:evenodd;stroke:none"
             d="M 14645.3,7071.93 C 14645.3,3166.18 11479,0 7573.32,0 3667.59,0 501.379,3166.18 501.379,7071.93 c 0,3905.67 3166.211,7071.97 7071.941,7071.97 3905.68,0 7071.98,-3166.3 7071.98,-7071.97" /><path
             id="path24"
             style="fill:#ed1c24;fill-opacity:1;fill-rule:evenodd;stroke:none"
             d="m 7573.32,14131.3 c -3502.71,0 -6410.58,-2546.5 -6973.39,-5889.2 112.027,184.6 225.668,368.4 318.484,563.51 135.756,352.85 239.246,715.71 408.566,1056.76 149.51,301.13 349.48,585.53 546.1,857.43 146.21,202.2 297.4,401.7 457.88,592.8 51.82,61.7 103.25,125.1 165.01,177.3 101.52,85.8 221.51,198.5 351.4,253.6 98.92,41.9 198.09,96.4 303.59,123.8 96.22,25.1 209.45,34.8 303.17,45.7 168.75,130.5 338.77,256.3 522.16,366.6 143.53,86.3 290.72,166.4 440.05,242.3 114.87,58.3 230.79,114.4 346.99,170 34.38,39.6 68.77,79.2 103.33,118.5 168.79,192.1 456.84,292.6 706.29,292.6 67.19,-0.2 132.66,-6.7 196.44,-19.3 9.68,0.2 19.38,0.5 29.13,0.5 88.51,-11.9 177.03,-23.8 265.54,-35.7 98.44,-27.6 189.28,-68.2 272.62,-121.6 154.44,-47.7 296.86,-132.4 412.52,-248 186.47,-186.5 292.55,-442.5 292.55,-706.3 0,-277.3 -112.81,-503.4 -292.55,-706.3 -23.02,-26 -45.59,-52.4 -67.82,-79 -174.84,-244.9 -318.71,-509.7 -441.74,-784.2 C 6034.09,9887.17 5887,9350.57 5723.86,8820.23 5638.7,8543.4 5549.74,8267.27 5443.46,7997.71 5288.17,7603.86 5088.78,7239.38 4893.01,6865.49 4605.63,6316.66 4374.79,5732.82 4059.42,5198.48 c 63.06,-13.57 125.38,-30.54 186.48,-51.61 203.24,-69.92 399.99,-170.03 611.51,-213.37 16.98,-0.84 33.94,-1.13 50.95,-0.77 5.16,1.34 10.29,2.82 15.41,4.24 6.18,3.53 12.27,7.21 18.32,10.96 42.9,40.58 80.7,85.61 117.2,132.2 178.25,231.82 351.52,468.88 495.9,723.53 68.69,121.25 187.62,198.88 317.37,225.04 68.39,83.14 135.62,167.27 201.82,252.18 194.51,254.09 382.56,512.92 575.3,768.28 122.07,161.74 245.25,322.78 372.37,480.58 92.02,114.25 189.51,224.15 281.14,338.66 162.96,217.12 312.7,444.99 494.32,647.42 108.31,120.77 236.49,220.35 353.35,332.28 105.91,216.2 219.74,426.69 411.47,586.24 101.03,84.06 201.99,139.94 337.8,139.94 126.2,0 248.65,-50.74 337.87,-139.94 89.15,-89.18 139.91,-211.6 139.91,-337.81 0,-116.45 -47.15,-260.61 -139.91,-337.83 -7.21,-5.95 -14.14,-12.13 -21.07,-18.31 -71.55,-170.08 -167.55,-322.76 -286.82,-461.16 -33.23,-69.88 -66.46,-139.82 -102.38,-208.16 -140.69,-267.8 -346,-496.21 -544.02,-722.96 -200.58,-229.72 -407.16,-454.2 -604.69,-686.59 -93.47,-109.93 -184.66,-221.71 -274.66,-334.54 3.32,-5.16 6.64,-10.4 9.75,-15.77 68.44,-116.79 73.81,-238.61 48.15,-368.13 -81.09,-409.63 -298.21,-777.9 -466.15,-1156.98 -105.95,-267.6 -177.81,-557.53 -315.56,-811.2 4.01,-10.96 7.78,-22.13 11,-33.51 28.53,-101.1 42.52,-204.96 44.26,-309.31 127.26,79.82 241.32,179.79 369.14,260.17 177.31,111.56 371.45,188.98 564.46,268.38 69.7,31.24 136.87,66.24 200.36,108.45 75.93,68.15 140.26,146.34 209.41,222.2 94.24,103.36 188.55,206.23 278.41,313.62 177.24,211.74 356.67,421.72 543.11,625.55 4.87,5.3 9.82,10.39 14.91,15.41 79.54,114.95 169.26,222.49 249.08,337.23 83.7,120.47 155.18,244.97 215.91,378.45 30.9,68.01 61.08,136.66 97.07,202.2 49.91,90.78 111,168.9 174.91,250.98 46.38,59.46 124.43,99.69 204.1,121.25 43.13,73.95 85.9,148.11 127.69,222.91 189.43,339.45 368.33,677.48 626.93,971.65 172,195.69 500.4,175.2 675.6,0 89.2,-89.19 139.9,-211.62 139.9,-337.82 0,-133.01 -54.1,-240.28 -139.9,-337.83 -18.1,-20.61 -35.8,-41.58 -53.1,-62.77 -138.3,-190.45 -249.9,-398.03 -362.9,-604.18 -127.3,-232.25 -269.5,-455.45 -400.9,-685.29 -88.3,-154.55 -173.9,-310.65 -256.6,-468.09 34.1,-66.39 54.4,-140.84 48,-210.33 -24.2,-262.01 -25.1,-525.15 -33.2,-787.94 9.3,-36.69 14.4,-75.01 14.4,-114.39 0.2,-223.27 5.8,-446.68 31.1,-668.67 28.3,-178.59 72.2,-353.71 137.4,-522.61 37.7,-83.49 80.1,-166.21 131.1,-242.07 178.3,-201.7 419.6,-335.32 594.3,-540.91 45.4,-53.52 82.3,-108.1 106.8,-167.92 274.9,-10.67 535.9,-136.02 717.4,-339 12.8,1.28 25.7,2.69 38.5,4.39 -12.4,-1.63 -24.9,-3.33 -37.4,-5.02 104.9,10.18 200.5,1.34 299.9,-56.92 4,-2.33 8,-4.87 12,-7.35 1454.9,1295.28 2371.6,3182.3 2371.6,5283.61 0,3905.68 -3166.3,7071.88 -7071.98,7071.88" /><path
             id="path26"
             style="fill:#ffffff;fill-opacity:1;fill-rule:evenodd;stroke:none"
             d="m 7594.82,4351.72 c 173.77,254.38 345.08,510.52 521.68,762.91 813.82,1162.57 1699.96,2268 2638.6,3331.64 175.6,198.86 352.8,396.16 530.8,592.78 196.6,217.09 421.5,371.09 734.9,346.96 496.3,-38.19 825,-494.03 682.6,-967.31 -40.5,-134.41 -100.6,-268.64 -178.2,-385.23 -435.3,-653.44 -849.9,-1318.01 -1158.7,-2042.74 -150.5,-353.35 -272.4,-715.12 -327.6,-1097.59 -36.3,-250.77 8.1,-494.4 51.8,-738.17 86.1,-480.9 253.8,-928.7 557.1,-1317.68 376.4,-482.81 876.5,-771.97 1462.5,-922.77 465.1,-119.69 937.3,-152.28 1415.1,-105.9 27,2.61 54.3,3.32 81.5,3.81 8.8,0.15 17.6,-3.32 32.5,-30.18 -220.2,-60.73 -437.6,-134.9 -661.1,-178.59 -269,-52.53 -543.9,-114.18 -814.7,-107.74 -305.5,7.28 -616.5,58.89 -912.6,138.21 -1366.4,366.08 -2122.2,1293.08 -2409.87,2650.92 -127.47,601.3 26.3,1158.26 215.57,1712.75 203.5,596.06 489.6,1154.37 812.2,1694.23 13.3,22.05 25.4,44.77 21.4,78.73 -129,-166.72 -260.2,-331.72 -386.5,-500.39 C 9482.9,5907.95 8462.79,4544.94 7443.03,3181.66 7328.78,3028.88 7196.5,2893.07 6991.36,2919.79 c -115.24,14.92 -234.54,68.93 -332.13,134.89 -203.25,137.16 -349.65,333.28 -463.53,547.57 -96.7,181.97 -56.88,379.72 -13.67,568.48 122.92,536.68 357.79,1030.44 607.15,1516.42 494.99,964.76 1052.38,1892.16 1675.16,2780.66 157.24,224.23 286.69,468.56 418.68,709.3 29.2,53.4 15.06,130.57 20.93,196.82 -57.06,-29.34 -123.94,-47.91 -169.61,-89.69 C 8316.23,8901.8 7956.37,8465.83 7614.54,8016.93 6966.17,7165.46 6317.71,6313.4 5694.88,5443.31 5191.57,4740.21 4782.41,3981.54 4532.04,3146.8 c -43.52,-145.07 -81.11,-288.87 -63.51,-448.16 22.4,-202.83 -101.17,-319.98 -307.01,-338.01 -352.42,-30.96 -572.06,179.08 -761.96,427.02 -195.93,255.86 -267.55,560.22 -289.5,876.74 -45.87,661.81 133.95,1274.56 397.16,1872.46 506.5,1150.41 1098.3,2256.96 1715.34,3350.3 373.66,662.1 765.47,1313.95 1145.9,1972.25 173.41,300.1 328.63,608.7 396.93,953.4 127.66,644.3 -216.68,940.2 -774.15,1000 -285.54,30.7 -553.8,-52.1 -811.36,-156.1 C 4096.94,12219.4 3117.47,11620.9 2313.54,10761.9 1736.38,10145.1 1295.7,9446.69 1100.92,8614.39 c -86.22,-368.41 -39.44,-713.06 273.03,-973.17 195.85,-163.01 434.68,-218.26 681.41,-235.63 145.36,-10.25 292.96,-11.12 438.03,1.39 260.55,22.53 470.2,151.96 629.15,354.36 102.94,131.09 112.57,290.58 32.67,432.73 -70.26,125.02 -170.67,233.73 -262.82,345.5 -34,41.21 -85.26,67.68 -123.65,105.91 -65.81,65.47 -137.27,138.33 -99.17,239.26 41.93,111.14 141,164.14 255.6,172.43 58.98,4.24 126.78,-1.78 178.51,-27.49 306.98,-152.55 542.21,-372.75 625.44,-719.69 13.61,-56.72 11.5,-122.65 -2.36,-179.74 -177.36,-730.23 -672.49,-1122.8 -1381.37,-1272.96 -412.27,-87.24 -829.64,-95.8 -1244.43,-7.07 C 534.969,6971.25 176.172,7355.45 111.074,7933.95 2.06641,8902.51 276.445,9759.03 895.52,10508 c 594.56,719.3 1345.36,1240.8 2150.39,1692.3 518.48,290.8 1055.86,543.5 1615.47,743.7 506.13,181.1 1029.72,267.9 1570.07,235.5 759.47,-45.6 1325.4,-541.1 1512.26,-1303.7 117.22,-478.2 30.61,-927.7 -133.69,-1374.8 -331.15,-901.22 -786.12,-1742.34 -1244.65,-2582.26 -336.33,-616 -664.81,-1236.29 -996.35,-1854.9 -16.49,-30.76 -28.79,-63.77 -43.02,-95.73 8.84,-6.15 17.68,-12.23 26.52,-18.31 23.34,26.58 50.63,50.76 69.46,80.24 501.13,785.89 1033.82,1550.19 1639.29,2258.78 436.9,511.33 905.92,995.2 1360.3,1491.68 100.89,110.24 195.98,226.1 301.25,332 177.81,178.6 380.43,315.8 638.13,354.6 421.43,63.3 845.55,-307.9 913.45,-727.39 38.1,-235.46 22,-454.71 -104.5,-666.54 C 9762.66,8391.54 9357.2,7708.74 8960.72,7020.82 8498.07,6218.1 8043.68,5410.65 7592.48,4601.5 c -36.69,-65.89 -21.27,-160.91 -30.11,-242.35 10.81,-2.48 21.63,-4.95 32.45,-7.43" /><path
             id="path28"
             style="fill:#4f4c4c;fill-opacity:1;fill-rule:evenodd;stroke:none"
             d="m 7507.08,4188.76 c 173.78,254.45 345.08,510.59 521.76,762.98 813.74,1162.5 1699.88,2267.97 2638.66,3331.61 175.4,198.86 352.7,396.15 530.7,592.78 196.6,217.08 421.5,371.1 735,346.96 496.1,-38.18 825,-494.02 682.5,-967.31 -40.5,-134.41 -100.5,-268.65 -178.2,-385.23 -435.2,-653.45 -849.9,-1317.97 -1158.7,-2042.78 -150.5,-353.28 -272.3,-715.12 -327.6,-1097.6 -36.2,-250.76 8.2,-494.32 51.8,-738.09 86.1,-480.89 253.9,-928.7 557.2,-1317.76 376.3,-482.73 876.4,-771.89 1462.4,-922.69 465.1,-119.76 937.2,-152.28 1415.1,-105.9 27,2.61 54.3,3.32 81.5,3.74 8.8,0.22 17.6,-3.32 32.5,-30.18 -220.1,-60.66 -437.7,-134.83 -661.1,-178.52 -269,-52.6 -543.9,-114.25 -814.8,-107.74 -305.4,7.28 -616.5,58.89 -912.5,138.21 -1366.5,366.08 -2122.2,1293.08 -2409.91,2650.85 -127.46,601.37 26.31,1158.26 215.63,1712.75 203.48,596.14 489.48,1154.44 812.28,1694.27 13.1,22.05 25.3,44.77 21.3,78.72 -129,-166.7 -260.1,-331.72 -386.5,-500.39 C 9395.23,5744.98 8375.05,4382.05 7355.36,3018.77 c -114.32,-152.78 -246.59,-288.59 -451.72,-261.94 -115.23,14.99 -234.53,69 -332.13,134.89 -203.24,137.23 -349.65,333.35 -463.53,547.64 -96.69,181.9 -56.88,379.72 -13.66,568.41 122.91,536.75 357.79,1030.44 607.14,1516.49 495.04,964.76 1052.36,1892.12 1675.22,2780.63 157.16,224.24 286.61,468.56 418.61,709.3 29.26,53.4 15.12,130.57 20.92,196.82 -56.98,-29.33 -123.86,-47.92 -169.53,-89.7 C 8228.56,8738.88 7868.63,8302.9 7526.8,7854.01 6878.46,7002.5 6230,6150.51 5607.16,5280.42 5103.85,4577.32 4694.7,3818.58 4444.32,2983.91 c -43.51,-145.14 -81.12,-288.87 -63.5,-448.16 22.39,-202.83 -101.18,-320.05 -307.02,-338.08 -352.41,-30.89 -572.05,179.15 -761.96,427.1 -195.93,255.85 -267.55,560.14 -289.5,876.73 -45.86,661.74 133.95,1274.56 397.16,1872.39 506.5,1150.48 1098.31,2257 1715.35,3350.34 373.65,662.09 765.46,1313.97 1145.89,1972.27 173.42,300 328.64,608.7 396.92,953.4 127.67,644.3 -216.67,940.2 -774.13,1000 -285.54,30.6 -553.81,-52.1 -811.37,-156.1 C 4009.22,12056.5 3029.75,11458 2225.82,10598.9 1648.66,9982.2 1207.99,9283.76 1013.21,8451.47 c -86.23,-368.42 -39.448,-713.06 273.03,-973.18 195.84,-163 434.67,-218.24 681.4,-235.63 145.37,-10.25 292.97,-11.11 438.04,1.41 260.54,22.52 470.18,151.95 629.14,354.35 102.95,131.09 112.57,290.58 32.68,432.73 -70.27,125.02 -170.68,233.73 -262.83,345.49 -34,41.22 -85.26,67.69 -123.64,105.91 -65.82,65.49 -137.27,138.33 -99.18,239.26 41.94,111.14 141,164.15 255.61,172.44 58.97,4.24 126.78,-1.79 178.5,-27.49 306.99,-152.56 542.23,-372.76 625.45,-719.69 13.61,-56.72 11.5,-122.65 -2.37,-179.73 C 3461.68,7237.09 2966.56,6844.49 2257.68,6694.4 1845.4,6607.09 1428.03,6598.6 1013.24,6687.33 447.254,6808.36 88.457,7192.52 23.3555,7771.02 -85.6484,8739.59 188.727,9596.11 807.805,10345.1 c 594.565,719.3 1345.365,1240.8 2150.385,1692.3 518.48,290.7 1055.87,543.5 1615.48,743.7 506.13,181.1 1029.71,267.9 1570.06,235.5 759.47,-45.6 1325.39,-541.1 1512.31,-1303.7 117.15,-478.2 30.62,-927.7 -133.69,-1374.8 C 7191.13,9436.86 6736.18,8595.74 6277.64,7755.81 5941.33,7139.82 5612.84,6519.49 5281.3,5900.88 c -16.48,-30.76 -28.79,-63.7 -43.02,-95.73 8.85,-6.08 17.69,-12.16 26.53,-18.31 23.33,26.65 50.62,50.76 69.45,80.31 501.13,785.82 1033.83,1550.15 1639.29,2258.76 436.89,511.32 905.97,995.19 1360.28,1491.66 100.89,110.25 195.98,226.14 301.32,331.96 177.74,178.67 380.36,315.87 638.13,354.57 421.43,63.3 845.52,-307.81 913.42,-727.31 38.1,-235.46 22,-454.71 -104.6,-666.54 C 9674.92,8228.62 9269.46,7545.82 8872.98,6857.93 8410.4,6055.21 7955.95,5247.76 7504.75,4438.54 c -36.7,-65.89 -21.28,-160.84 -30.05,-242.28 10.82,-2.48 21.57,-5.02 32.38,-7.5" /><path
             id="path30"
             style="fill:#ffffff;fill-opacity:1;fill-rule:evenodd;stroke:none"
             d="m 7619.85,4339.21 c 173.78,254.38 345.08,510.52 521.75,762.91 813.75,1162.57 1699.88,2267.97 2638.6,3331.62 175.5,198.85 352.8,396.16 530.8,592.77 196.6,217.1 421.5,371.11 734.9,346.96 496.2,-38.17 825,-494.02 682.6,-967.31 -40.5,-134.41 -100.6,-268.64 -178.3,-385.22 -435.2,-653.45 -849.8,-1317.99 -1158.6,-2042.72 -150.6,-353.35 -272.4,-715.19 -327.7,-1097.67 -36.2,-250.77 8.2,-494.33 51.9,-738.1 86.1,-480.89 253.8,-928.7 557.1,-1317.68 376.4,-482.8 876.5,-771.96 1462.4,-922.76 465.2,-119.76 937.3,-152.28 1415.1,-105.91 27.1,2.62 54.4,3.33 81.6,3.82 8.7,0.14 17.6,-3.32 32.4,-30.26 -220.1,-60.66 -437.5,-134.82 -661,-178.51 -269,-52.6 -544,-114.18 -814.8,-107.75 -305.4,7.28 -616.4,58.89 -912.5,138.22 -1366.5,366.08 -2122.2,1293.08 -2409.94,2650.92 -127.4,601.3 26.3,1158.26 215.64,1712.68 203.5,596.13 489.5,1154.42 812.2,1694.28 13.2,22.05 25.4,44.77 21.4,78.72 -129,-166.7 -260.2,-331.72 -386.6,-500.39 C 9508,5895.43 8487.82,4532.43 7468.13,3169.14 c -114.25,-152.78 -246.53,-288.59 -451.7,-261.93 -115.25,14.99 -234.54,69 -332.14,134.89 -203.25,137.22 -349.65,333.35 -463.53,547.63 -96.7,181.91 -56.88,379.72 -13.66,568.42 122.91,536.74 357.79,1030.51 607.14,1516.49 495.03,964.75 1052.35,1892.14 1675.2,2780.64 157.17,224.23 286.61,468.56 418.61,709.3 29.27,53.4 15.13,130.56 21,196.82 -57.06,-29.33 -123.94,-47.92 -169.61,-89.7 C 8341.33,8889.27 7981.4,8453.29 7639.57,8004.39 6991.23,7152.92 6342.78,6300.89 5719.94,5430.8 5216.63,4727.7 4807.48,3968.96 4557.1,3134.29 c -43.51,-145.08 -81.12,-288.88 -63.51,-448.16 22.41,-202.83 -101.16,-319.98 -307.01,-338.01 -352.41,-30.97 -572.05,179.08 -761.96,427.02 -195.92,255.86 -267.55,560.22 -289.49,876.74 -45.88,661.81 133.94,1274.55 397.16,1872.38 506.5,1150.49 1098.3,2257.02 1715.34,3350.36 373.66,662.09 765.46,1313.98 1145.9,1972.28 173.41,300 328.63,608.6 396.92,953.3 127.66,644.4 -216.68,940.3 -774.14,1000.1 -285.54,30.6 -553.81,-52.1 -811.36,-156.2 C 4122,12206.9 3142.54,11608.4 2338.6,10749.3 1761.44,10132.6 1320.77,9434.15 1125.98,8601.87 c -86.22,-368.43 -39.43,-713.07 273.04,-973.19 195.84,-162.99 434.67,-218.25 681.41,-235.63 145.36,-10.25 292.96,-11.11 438.02,1.41 260.55,22.52 470.19,151.95 629.15,354.35 102.95,131.09 112.57,290.58 32.68,432.74 -70.27,125 -170.68,233.72 -262.83,345.49 -34,41.21 -85.25,67.68 -123.65,105.9 -65.81,65.49 -137.26,138.33 -99.16,239.26 41.93,111.14 140.99,164.15 255.6,172.44 58.97,4.24 126.78,-1.78 178.5,-27.49 306.99,-152.56 542.22,-372.76 625.44,-719.69 13.62,-56.72 11.51,-122.65 -2.36,-179.74 -177.36,-730.25 -672.48,-1122.85 -1381.37,-1272.95 -412.27,-87.31 -829.64,-95.79 -1244.42,-7.07 -565.999,121.04 -924.792,505.21 -989.893,1083.72 -109.0042,968.56 165.367,1825.07 784.445,2574.08 594.558,719.3 1345.368,1240.8 2150.388,1692.3 518.48,290.7 1055.87,543.5 1615.48,743.7 506.12,181.1 1029.71,267.9 1570.06,235.4 759.47,-45.5 1325.44,-541 1512.3,-1303.6 117.15,-478.2 30.61,-927.7 -133.69,-1374.8 -331.23,-901.25 -786.16,-1742.37 -1244.69,-2582.3 -336.32,-616 -664.81,-1236.33 -996.35,-1854.88 -16.48,-30.75 -28.78,-63.77 -43.02,-95.72 8.84,-6.15 17.69,-12.24 26.53,-18.39 23.33,26.66 50.62,50.77 69.46,80.32 501.12,785.88 1033.83,1550.16 1639.3,2258.77 436.92,511.31 905.94,995.19 1360.25,1491.66 100.88,110.25 195.97,226.14 301.31,331.94 177.81,178.7 380.37,315.9 638.13,354.6 421.44,63.3 845.46,-307.8 913.46,-727.32 38.1,-235.47 22,-454.71 -104.6,-666.54 C 9787.68,8379 9382.23,7696.2 8985.75,7008.3 8523.16,6205.59 8068.79,5398.14 7617.58,4588.92 c -36.76,-65.82 -21.35,-160.84 -30.12,-242.29 10.82,-2.47 21.64,-5.02 32.39,-7.42" /></g></g></g></g></svg>